<?xml version="1.0" standalone="no"?>
<!DOCTYPE svg PUBLIC "-//W3C//DTD SVG 20010904//EN"
 "http://www.w3.org/TR/2001/REC-SVG-20010904/DTD/svg10.dtd">
<svg version="1.0" xmlns="http://www.w3.org/2000/svg"
 width="512.000000pt" height="512.000000pt" viewBox="0 0 512.000000 512.000000"
 preserveAspectRatio="xMidYMid meet">
<metadata>
Created by potrace 1.14, written by Peter Selinger 2001-2017
</metadata>
<g transform="translate(0.000000,512.000000) scale(0.100000,-0.100000)"
fill="#000000" stroke="none">
<path d="M969 4980 c-405 -85 -705 -367 -816 -765 l-28 -100 0 -1550 0 -1550
22 -85 c47 -184 129 -338 250 -469 146 -158 298 -248 528 -313 l80 -23 1515
-3 c1329 -2 1525 0 1604 13 414 72 737 370 845 779 l26 101 0 1550 0 1550 -27
96 c-34 120 -85 233 -146 324 -54 79 -181 216 -230 247 -18 11 -38 25 -45 31
-47 43 -217 122 -332 154 l-100 28 -1530 2 c-1446 2 -1535 1 -1616 -17z m1881
-894 c96 -6 111 -8 210 -27 260 -50 490 -235 591 -477 70 -170 77 -388 18
-561 -40 -115 -148 -263 -238 -326 -23 -15 -41 -31 -41 -35 0 -4 12 -12 28
-19 78 -36 201 -134 270 -215 69 -82 123 -206 145 -336 19 -108 14 -285 -9
-362 -3 -9 -6 -25 -8 -35 -16 -79 -83 -212 -153 -305 -135 -178 -369 -302
-628 -333 -27 -4 -61 -8 -75 -11 -73 -12 -310 -17 -795 -17 -407 0 -554 3
-595 13 -123 29 -210 93 -251 185 -47 106 -47 102 -44 1357 1 651 5 1196 9
1211 41 165 136 258 294 287 31 5 75 11 97 13 83 5 1084 -1 1175 -7z"/>
<path d="M2020 3195 l0 -297 332 5 c339 5 354 6 436 33 63 22 98 48 130 98 39
61 52 104 52 171 0 72 -6 108 -25 146 -17 32 -75 79 -98 79 -9 0 -18 4 -21 8
-5 8 -69 25 -146 38 -19 4 -175 9 -347 11 l-312 5 -1 -297z"/>
<path d="M2026 2312 c-4 -3 -6 -158 -6 -344 l1 -338 338 0 c440 1 532 18 640
116 67 59 85 112 86 236 0 73 -4 111 -12 120 -7 6 -13 20 -13 29 0 27 -73 94
-133 123 -110 52 -171 58 -549 61 -191 2 -349 0 -352 -3z"/>
</g>
</svg>
